<?xml version="1.0" encoding="UTF-8" standalone="no"?>
<!-- Created with Inkscape (http://www.inkscape.org/) -->

<svg
   xmlns:dc="http://purl.org/dc/elements/1.1/"
   xmlns:cc="http://creativecommons.org/ns#"
   xmlns:rdf="http://www.w3.org/1999/02/22-rdf-syntax-ns#"
   xmlns:svg="http://www.w3.org/2000/svg"
   xmlns="http://www.w3.org/2000/svg"
   xmlns:sodipodi="http://sodipodi.sourceforge.net/DTD/sodipodi-0.dtd"
   xmlns:inkscape="http://www.inkscape.org/namespaces/inkscape"
   width="179.80107mm"
   height="163.37706mm"
   viewBox="0 0 179.80107 163.37706"
   version="1.1"
   id="svg8"
   inkscape:version="0.92.5 (2060ec1f9f, 2020-04-08)"
   sodipodi:docname="слон.svg">
  <defs
     id="defs2" />
  <sodipodi:namedview
     id="base"
     pagecolor="#ffffff"
     bordercolor="#666666"
     borderopacity="1.0"
     inkscape:pageopacity="0.0"
     inkscape:pageshadow="2"
     inkscape:zoom="0.35"
     inkscape:cx="-553.52333"
     inkscape:cy="488.60735"
     inkscape:document-units="mm"
     inkscape:current-layer="layer1"
     showgrid="false"
     inkscape:window-width="1846"
     inkscape:window-height="1016"
     inkscape:window-x="74"
     inkscape:window-y="27"
     inkscape:window-maximized="1" />
  <metadata
     id="metadata5">
    <rdf:RDF>
      <cc:Work
         rdf:about="">
        <dc:format>image/svg+xml</dc:format>
        <dc:type
           rdf:resource="http://purl.org/dc/dcmitype/StillImage" />
        <dc:title></dc:title>
      </cc:Work>
    </rdf:RDF>
  </metadata>
  <g
     inkscape:label="Layer 1"
     inkscape:groupmode="layer"
     id="layer1"
     transform="translate(-5e-6,-133.62294)">
    <g
       id="g912"
       transform="translate(-12.951997,20.210434)">
      <ellipse
         transform="rotate(-30)"
         ry="33.589035"
         rx="33.589039"
         cy="239.51961"
         cx="-19.542316"
         id="path819"
         style="fill:#aa5050;fill-opacity:1;stroke:none;stroke-width:2.82192659;stroke-linecap:round;stroke-linejoin:round;stroke-miterlimit:4;stroke-dasharray:none;stroke-opacity:1" />
      <path
         inkscape:connector-curvature="0"
         id="path820"
         d="m 102.83566,113.41251 c -19.092936,10.0637 -25.638527,30.81881 -35.3676,48.34434 -8.220644,14.80835 -11.836149,42.141 -1.985565,54.69033 4.087935,5.2079 13.057374,14.67308 20.36563,6.43145 14.519865,-16.37421 2.701771,-46.07035 1.672396,-63.22 -1.008702,-16.80524 8.47253,-33.92011 15.315139,-46.24612 z"
         style="fill:#aa5050;fill-opacity:1;stroke:none;stroke-width:0.15530762px;stroke-linecap:butt;stroke-linejoin:miter;stroke-opacity:1" />
      <path
         inkscape:connector-curvature="0"
         id="path820-4"
         d="m 102.83566,113.41251 c 15.83769,14.66241 16.78845,36.40442 21.65005,55.85087 4.10785,16.43143 0.52596,43.76849 -12.23698,53.34069 -5.29655,3.97242 -16.410124,10.79362 -21.336273,0.94131 -9.787158,-19.57431 9.314173,-45.19982 14.747133,-61.49868 5.32384,-15.97156 0.59534,-34.95717 -2.82393,-48.63419 z"
         style="fill:#aa5050;fill-opacity:1;stroke:none;stroke-width:0.15530762px;stroke-linecap:butt;stroke-linejoin:miter;stroke-opacity:1" />
      <path
         inkscape:connector-curvature="0"
         id="path820-7"
         d="m 192.71933,269.09559 c 0.83105,-21.56681 -13.8706,-37.61302 -24.18362,-54.8014 -8.71408,-14.52347 -30.5771,-31.32091 -46.37043,-29.06471 -6.55414,0.9363 -19.23595,3.97147 -15.75262,14.42141 6.92055,20.76168 38.54721,25.37499 53.91393,33.05835 15.05812,7.52905 25.13941,24.29747 32.39274,36.38635 z"
         style="fill:#aa5050;fill-opacity:1;stroke:none;stroke-width:0.15530764px;stroke-linecap:butt;stroke-linejoin:miter;stroke-opacity:1" />
      <path
         inkscape:connector-curvature="0"
         id="path820-4-1"
         d="m 192.71933,269.09559 c -20.61686,6.38465 -39.92137,-3.66298 -59.19329,-9.17594 -16.28396,-4.6582 -38.1676,-21.42874 -40.0759,-37.26788 -0.791938,-6.57315 -1.14249,-19.60839 9.85294,-18.9484 21.84542,1.31122 34.4871,30.66621 45.88585,43.52072 11.16985,12.59636 29.97612,17.99417 43.5304,21.8715 z"
         style="fill:#aa5050;fill-opacity:1;stroke:none;stroke-width:0.15530764px;stroke-linecap:butt;stroke-linejoin:miter;stroke-opacity:1" />
      <path
         inkscape:connector-curvature="0"
         id="path820-1"
         d="m 12.952002,269.09558 c 18.26189,11.50312 39.509128,6.79422 59.551226,6.45707 16.934733,-0.28488 42.413252,-10.82009 48.356002,-25.62561 2.4662,-6.14421 6.17858,-18.64456 -4.61301,-20.85288 -21.440416,-4.38747 -41.248991,20.69537 -55.586334,30.16166 -14.049414,9.27618 -33.611933,9.62263 -47.707884,9.85976 z"
         style="fill:#aa5050;fill-opacity:1;stroke:none;stroke-width:0.15530764px;stroke-linecap:butt;stroke-linejoin:miter;stroke-opacity:1" />
      <path
         inkscape:connector-curvature="0"
         id="path820-4-5"
         d="m 12.952002,269.09558 c 4.779174,-21.04704 23.132927,-32.74143 37.543247,-46.67492 12.176111,-11.77322 37.641642,-22.33974 52.312881,-16.07281 6.08849,2.60073 17.55261,8.81478 11.48333,18.00709 -12.05826,18.26308 -43.801273,14.5336 -60.632979,17.97795 -16.493688,3.3752 -30.571463,16.96302 -40.706479,26.76269 z"
         style="fill:#aa5050;fill-opacity:1;stroke:none;stroke-width:0.15530764px;stroke-linecap:butt;stroke-linejoin:miter;stroke-opacity:1" />
    </g>
  </g>
</svg>
